<?xml version="1.0" encoding="UTF-8" standalone="no"?>
<svg
   width="150"
   height="150"
   viewBox="0 0 73.496203 73.50096"
   version="1.1"
   id="svg17"
   sodipodi:docname="whatsapp-icon.svg"
   inkscape:version="1.2.1 (9c6d41e410, 2022-07-14)"
   xmlns:inkscape="http://www.inkscape.org/namespaces/inkscape"
   xmlns:sodipodi="http://sodipodi.sourceforge.net/DTD/sodipodi-0.dtd"
   xmlns="http://www.w3.org/2000/svg"
   xmlns:svg="http://www.w3.org/2000/svg">
  <defs
     id="defs21" />
  <sodipodi:namedview
     id="namedview19"
     pagecolor="#ffffff"
     bordercolor="#000000"
     borderopacity="0.25"
     inkscape:showpageshadow="2"
     inkscape:pageopacity="0.0"
     inkscape:pagecheckerboard="0"
     inkscape:deskcolor="#d1d1d1"
     showgrid="false"
     inkscape:zoom="3.456"
     inkscape:cx="61.487269"
     inkscape:cy="76.099537"
     inkscape:window-width="1366"
     inkscape:window-height="742"
     inkscape:window-x="0"
     inkscape:window-y="0"
     inkscape:window-maximized="1"
     inkscape:current-layer="svg17" />
  <linearGradient
     id="a"
     gradientUnits="userSpaceOnUse"
     x1="609.77002"
     y1="1190.114"
     x2="609.77002"
     y2="21.084"
     gradientTransform="translate(0.00395531,6.91)">
    <stop
       offset="0"
       stop-color="#20b038"
       id="stop4" />
    <stop
       offset="1"
       stop-color="#60d66a"
       id="stop6" />
  </linearGradient>
  <g
     id="g348"
     transform="matrix(0.06026906,0,0,0.06026906,-0.00237416,-0.16480196)">
    <path
       fill="#e0e0e0"
       d="M 1041.858,178.02002 C 927.20596,63.289018 774.75296,0.0700185 612.32496,1.85e-5 277.61696,1.85e-5 5.2319629,272.29802 5.0979629,606.99102 c -0.039,106.986 27.9150001,211.42 81.0480001,303.476 L -3.7118707e-5,1225.016 321.89796,1140.61 c 88.689,48.368 188.547,73.855 290.166,73.896 h 0.258 0.003 c 334.654,0 607.08004,-272.34598 607.22204,-607.02298 0.056,-162.208 -63.052,-314.724 -177.689,-429.463 z M 612.32496,1111.983 h -0.197 c -90.578,-0.048 -179.402,-24.366 -256.878,-70.339 l -18.438,-10.93 -191.021,50.083 51,-186.17598 -12.013,-19.087 c -50.525,-80.336 -77.198,-173.175 -77.16,-268.504 0.111,-278.186 226.507,-504.503 504.898,-504.503 134.812,0.056 261.519,52.604 356.814,147.965 95.28904,95.36 147.72804,222.128 147.68804,356.948 -0.118,278.195 -226.52204,504.54298 -504.69304,504.54298 z"
       id="path2" />
    <path
       fill="url(#a)"
       d="M 27.878955,1197.024 110.08996,896.844 C 59.370955,808.992 32.698955,709.32101 32.730955,607.24201 32.863955,287.84401 292.80896,27.992 612.19996,27.992 c 155.016,0.07 300.508,60.398 409.89804,169.89101 109.414,109.492 169.633,255.031 169.57,409.812 -0.133,319.40599 -260.09404,579.28099 -579.44504,579.28099 -0.023,0 0.016,0 0,0 h -0.258 c -96.977,-0.031 -192.266,-24.375 -276.898,-70.5 z"
       id="path9"
       style="fill:url(#a)" />
    <path
       fill-rule="evenodd"
       clip-rule="evenodd"
       fill="#ffffff"
       d="m 459.96224,356.09794 c -11.234,-24.977 -23.062,-25.477 -33.75,-25.914 -8.742,-0.375 -18.75,-0.352 -28.742,-0.352 -10,0 -26.25,3.758 -39.992,18.766 -13.75,15.008 -52.5,51.289 -52.5,125.078 0,73.797 53.75,145.102 61.242,155.117 7.5,10 103.758,166.266 256.203,226.383 126.695,49.961 152.477,40.023 179.977,37.523 27.5,-2.5 88.734,-36.273 101.234,-71.297 12.5,-35.016 12.5,-65.031 8.75,-71.305 -3.75,-6.25 -13.75,-10 -28.75,-17.5 -15,-7.5 -88.734,-43.789 -102.484,-48.789 -13.75,-5 -23.75,-7.5 -33.75,7.516 -10,15 -38.727,48.773 -47.477,58.773 -8.75,10.023 -17.5,11.273 -32.5,3.773 -15,-7.523 -63.305,-23.344 -120.609,-74.438 -44.586,-39.75 -74.688,-88.844 -83.438,-103.859 -8.75,-15 -0.938,-23.125 6.586,-30.602 6.734,-6.719 15,-17.508 22.5,-26.266 7.484,-8.758 9.984,-15.008 14.984,-25.008 5,-10.016 2.5,-18.773 -1.25,-26.273 -3.75,-7.5 -32.898,-81.67 -46.234,-111.326 z"
       id="path13" />
    <path
       fill="#ffffff"
       d="M 1036.898,183.00852 C 923.56196,69.594519 772.85896,7.1025185 612.29696,7.0315185 c -330.867,0 -600.124997,269.1720015 -600.257997,600.0230015 -0.039,105.759 27.594,208.993 80.117,299.993 L 6.9999633,1217.9845 325.20296,1134.5465 c 87.672,47.812 186.383,73.008 286.836,73.047 h 0.255 0.003 c 330.812,0 600.10904,-269.21898 600.25004,-600.05498 0.055,-160.343 -62.328,-311.108 -175.649,-424.53 z M 612.29696,1106.2505 h -0.195 c -89.539,-0.047 -177.344,-24.086 -253.93,-69.531 l -18.227,-10.805 -188.828,49.508 50.414,-184.03898 -11.875,-18.867 c -49.945,-79.414 -76.312,-171.188 -76.273,-265.422 0.109,-274.992 223.906,-498.711 499.102,-498.711 133.266,0.055 258.516,52 352.719,146.266 94.19504,94.266 146.03104,219.578 145.99204,352.852 -0.118,274.999 -223.92304,498.74898 -498.89904,498.74898 z"
       id="path15" />
  </g>
</svg>
